# xmcd
#
# Track frame offsets: 
#        150
#        13557
#        26598
#        49208
#        63470
#        77713
#        88782
#        103122
#        116212
#        127806
#        149078
#        162919
#        176282
#        190398
#        205520
#        224038
#        237913
#        251162
#        269866
#
# Disc length: 3840 seconds
#
# Revision: 0
# Processed by: cddbd v1.5.2PL0 Copyright (c) Steve Scherf et al.
# Submitted via: ExactAudioCopyFreeDBPlugin 1.0
#
DISCID=200efe13
DTITLE=Ann Peebles - The Essential [CD1]
DYEAR=2015
DGENRE=R&B
TTITLE0=Come to Mama
TTITLE1=I Don't Lend my Man
TTITLE2=I Needed Somebody
TTITLE3=Dr. Love Power
TTITLE4=Beware
TTITLE5=Love Played a Game
TTITLE6=If This is Heaven
TTITLE7=A Good Day for Lovin'
TTITLE8=Being Here with You
TTITLE9=You Gonna Make me Cry
TTITLE10=Loving You Without Love
TTITLE11=It Must Be Love
TTITLE12=Old Man With Young Ideas
TTITLE13=The  Handwriting on the Wall
TTITLE14=I Didn't Take your Man
TTITLE15=You're More Than I Can Stand
TTITLE16=Livin' In, Lovin' Out
TTITLE17=If I Can't See You
TTITLE18=Let Your Love Light Shine
EXTD=
EXTT0=
EXTT1=
EXTT2=
EXTT3=
EXTT4=
EXTT5=
EXTT6=
EXTT7=
EXTT8=
EXTT9=
EXTT10=
EXTT11=
EXTT12=
EXTT13=
EXTT14=
EXTT15=
EXTT16=
EXTT17=
EXTT18=
PLAYORDER=
